<?xml version="1.0" encoding="UTF-8"?>
<svg width="102px" height="16px" viewBox="0 0 102 16" version="1.1" xmlns="http://www.w3.org/2000/svg" xmlns:xlink="http://www.w3.org/1999/xlink">
    <!-- Generator: Sketch 53.2 (72643) - https://sketchapp.com -->
    <title>1bagelstudio_logo_gray</title>
    <desc>Created with Sketch.</desc>
    <g id="desktop" stroke="none" stroke-width="1" fill="none" fill-rule="evenodd">
        <g id="Homepage-Copy" transform="translate(-304.000000, -6172.000000)" fill="#B3B3B3" fill-rule="nonzero">
            <g id="1bagelstudio_logo_gray" transform="translate(304.000000, 6172.674788)">
                <path d="M16.7133613,1.38066898 L21.4367026,1.38066898 C22.6510453,1.38066898 23.5690691,1.69232876 24.1907738,2.31564832 C24.6567728,2.77668134 24.9125578,3.40913593 24.8980639,4.06449569 L24.8980639,4.09356241 C24.9026808,4.38291171 24.8593002,4.67102497 24.7696859,4.94618606 C24.6935027,5.17730242 24.58241,5.39540354 24.4402631,5.59292047 C24.303292,5.77718175 24.1400792,5.94039462 23.9558179,6.07736573 C23.7797285,6.21310675 23.5925606,6.33383411 23.3962836,6.43827744 C23.6885389,6.54230769 23.9713562,6.6711557 24.2416406,6.82341142 C24.4868966,6.96085204 24.709189,7.13574387 24.9004861,7.34176785 C25.0878628,7.54801389 25.2327302,7.78918505 25.326798,8.05148015 C25.4333894,8.35641836 25.4842588,8.67804391 25.476976,9.00099285 L25.476976,9.03005956 C25.4863316,9.46305541 25.3907593,9.89188387 25.19842,10.2799283 C25.0139437,10.6424005 24.7426725,10.9536136 24.4087742,11.1858409 C24.0342435,11.4418292 23.6165741,11.6280982 23.175861,11.7356863 C22.6548181,11.8663809 22.1191946,11.9298743 21.5820361,11.92462 L16.7133613,11.92462 L16.7133613,1.38066898 Z M21.0733686,5.82787642 C21.581961,5.85452197 22.0872164,5.73157651 22.5267044,5.47423139 C22.8864325,5.23703604 23.0930468,4.82657463 23.0692831,4.39634069 L23.0692831,4.3600073 C23.0829988,3.97101855 22.9011571,3.60097059 22.5848378,3.3741612 C22.1769817,3.1116482 21.6953552,2.98763148 21.2114355,3.02051617 L18.5469866,3.02051617 L18.5469866,5.82787642 L21.0733686,5.82787642 Z M21.6159473,10.287195 C22.1367656,10.3181609 22.6550965,10.1942672 23.1056165,9.93112774 C23.4667541,9.69201695 23.6727123,9.27825339 23.6457729,8.84597036 L23.6457729,8.81690365 C23.6612751,8.39870909 23.4597862,8.00214224 23.1128831,7.76807967 C22.7576233,7.52262741 22.2142372,7.39990128 21.4827249,7.39990128 L18.5518311,7.39990128 L18.5518311,10.287195 L21.6159473,10.287195 Z" id="Shape"></path>
                <path d="M31.9515868,11.9318866 L31.9515868,10.9629961 C31.6604125,11.2992076 31.3066681,11.5756218 30.9100295,11.7768642 C30.4317533,12.0103763 29.9039256,12.1242541 29.3719158,12.1087092 C29.005187,12.1103015 28.640268,12.0572372 28.2891807,11.9512645 C27.9629161,11.8532909 27.6580443,11.6946919 27.3905347,11.4837748 C27.1332518,11.2737998 26.9228384,11.0122272 26.772867,10.715929 C26.6091478,10.3856276 26.5261334,10.0211944 26.5306444,9.65257171 L26.5306444,9.62108277 C26.5220649,9.22328176 26.6049346,8.82882173 26.772867,8.46810306 C26.9305618,8.14857116 27.1602345,7.869979 27.4438237,7.65423504 C27.7502621,7.4270879 28.0984129,7.26247756 28.4684254,7.16978978 C28.8891228,7.06035303 29.3223641,7.00660506 29.7570498,7.00992285 C30.1681952,7.00529863 30.5790007,7.03527852 30.9851185,7.09954522 C31.3129661,7.15931472 31.636605,7.24022445 31.954009,7.34176785 L31.954009,7.19158982 C31.9843424,6.71467349 31.7984231,6.2494304 31.4477638,5.92476547 C31.0319582,5.60851342 30.5156521,5.4536216 29.994428,5.48876474 C29.5865905,5.48213657 29.179581,5.52772163 28.7833149,5.62440942 C28.4183392,5.71919294 28.0605629,5.8398008 27.7126908,5.98532113 L27.2282456,4.53198536 C27.6656637,4.33189943 28.1194863,4.16981996 28.5846923,4.04754011 C29.13305,3.9187904 29.6952648,3.85858215 30.2584507,3.86829536 C31.4437267,3.86829536 32.3221874,4.16219215 32.8938328,4.74998573 C33.4679005,5.33616449 33.7537232,6.16456588 33.7537232,7.22792321 L33.7537232,11.9318866 L31.9515868,11.9318866 Z M31.9951869,8.60132551 C31.729288,8.49964335 31.4543457,8.42340566 31.1740522,8.37363624 C30.8433506,8.31226753 30.5075934,8.28226025 30.1712505,8.28401387 C29.6991099,8.25597231 29.2295554,8.37167189 28.8244927,8.61585887 C28.5153517,8.81086364 28.3313937,9.15394517 28.3400474,9.51934927 L28.3400474,9.55083821 C28.324027,9.89985282 28.4934791,10.2313895 28.7857371,10.4228397 C29.1106236,10.6324901 29.4917048,10.7381113 29.8781611,10.725618 C30.1612531,10.7279473 30.443046,10.6871078 30.7138292,10.6045066 C30.9555983,10.5315932 31.1826952,10.416815 31.3847859,10.265395 C31.5711273,10.1250925 31.7234626,9.9446083 31.8304755,9.73734963 C31.9370089,9.5247275 31.9910001,9.28965793 31.9879202,9.0518596 L31.9951869,8.60132551 Z" id="Shape"></path>
                <path d="M39.1698211,14.3734907 C37.9182702,14.3940475 36.6853188,14.0688366 35.6067263,13.4336669 L36.2849496,12.0675313 C36.701325,12.3253766 37.1469218,12.5327254 37.6123296,12.685199 C38.0995151,12.8392737 38.6080088,12.9153025 39.1189544,12.9104661 C39.9263631,12.9104661 40.5496827,12.7037694 40.9889131,12.2903761 C41.4281434,11.8769828 41.6437216,11.2657744 41.6356475,10.4567508 L41.6356475,9.83666091 C41.3188902,10.2588854 40.9272553,10.6193209 40.4802455,10.9000182 C39.9812798,11.1856534 39.4125798,11.3265702 38.8379761,11.3069523 C38.3746033,11.3124093 37.9143749,11.2302257 37.4815294,11.0647296 C37.0548077,10.8974012 36.6636002,10.6508418 36.3285497,10.3380618 C35.9830978,10.0077811 35.7086374,9.6105141 35.5219484,9.17054869 C35.3139846,8.67463788 35.2108969,8.14105592 35.2191701,7.60336828 L35.2191701,7.57187934 C35.2111472,7.03186114 35.3142057,6.49595709 35.5219484,5.99743226 C35.7042622,5.54399379 35.9808529,5.13447434 36.3333942,4.79600803 C36.6690427,4.48042529 37.0631959,4.23356525 37.4936405,4.06934015 C37.9230544,3.89910399 38.3808939,3.81197476 38.8428206,3.81258416 C39.4237703,3.78962731 39.9997338,3.92795914 40.50689,4.2122515 C40.9311925,4.46775988 41.3108427,4.7909535 41.630803,5.16903088 L41.630803,3.97487332 L43.4547394,3.97487332 L43.4547394,10.3041506 C43.4547394,11.6283009 43.11805,12.627873 42.4446711,13.3028667 C42.0608488,13.6765346 41.5932955,13.9530803 41.0809577,14.1094681 C40.4612535,14.2951099 39.8166459,14.3841621 39.1698211,14.3734907 L39.1698211,14.3734907 Z M39.3199992,9.7712608 C39.6259101,9.77214828 39.9294859,9.71799692 40.2162229,9.61139387 C40.7703779,9.41379089 41.2211379,9.00059423 41.4660916,8.46568084 C41.5942588,8.19048473 41.6588328,7.88996701 41.6550253,7.5864127 L41.6550253,7.55492376 C41.6598075,7.24581786 41.5952472,6.9395704 41.4660916,6.65870004 C41.3449587,6.39712056 41.1738005,6.16177803 40.9622686,5.96594332 C40.7453966,5.76189843 40.4890219,5.60444645 40.2089562,5.5032981 C39.922081,5.39746978 39.6185005,5.34413806 39.3127325,5.34585339 C39.0091368,5.34181446 38.7075165,5.39523494 38.4237754,5.5032981 C38.1554801,5.60331734 37.9088167,5.753782 37.6971076,5.94656551 C37.4895687,6.13970667 37.3245766,6.37399543 37.2126623,6.63447777 C37.0929578,6.91787728 37.0335643,7.22309399 37.038262,7.5307015 L37.038262,7.55976821 C37.0347752,7.86799333 37.0966929,8.17345388 37.219929,8.45599193 C37.3358806,8.71633369 37.5002827,8.95225063 37.7043742,9.15117087 C37.9122241,9.35077245 38.1598356,9.50429158 38.4310421,9.60170496 C38.714717,9.71025807 39.0162777,9.7644897 39.3199992,9.7615719 L39.3199992,9.7712608 Z" id="Shape"></path>
                <path d="M49.0718821,12.1111314 C48.5254132,12.1148434 47.9833819,12.0128527 47.475635,11.8107753 C46.4841659,11.4252709 45.6955196,10.6480162 45.2956314,9.66226062 C45.0830851,9.13188945 44.9777086,8.5646675 44.9855864,7.99334671 L44.9855864,7.96185777 C44.9822413,7.41102406 45.0799388,6.86424663 45.2738313,6.34865507 C45.4548273,5.86133365 45.7287686,5.41381389 46.0804327,5.03096398 C46.4253522,4.65452352 46.8431594,4.35208712 47.3085014,4.14200693 C47.8012115,3.9215556 48.3359428,3.81080752 48.8756818,3.81742861 C49.4494475,3.80535407 50.0184579,3.92379438 50.5397513,4.16380697 C51.0001746,4.37981036 51.4071353,4.69495676 51.7314866,5.08667518 C52.0585346,5.49069601 52.3051981,5.95360134 52.4581545,6.45038858 C52.6216969,6.97987189 52.7033802,7.53123458 52.7003771,8.08539131 C52.7003771,8.16532478 52.7003771,8.2501027 52.7003771,8.32761394 C52.7003771,8.40512518 52.6858438,8.49959201 52.6761548,8.5916366 L46.8095228,8.5916366 C46.8716191,9.17120981 47.1491184,9.7063254 47.5870574,10.0909947 C48.012893,10.4402836 48.5503905,10.6243227 49.1009489,10.6093511 C49.5058625,10.6189498 49.9076356,10.53611 50.2757286,10.3671285 C50.6386206,10.1846104 50.9698398,9.94498756 51.2567302,9.65741617 L52.3200876,10.61904 C51.941593,11.0682036 51.4771099,11.4371547 50.953952,11.7041974 C50.3680296,11.9880069 49.7227153,12.1275343 49.0718821,12.1111314 L49.0718821,12.1111314 Z M50.878863,7.39505682 C50.8520055,7.11354662 50.7859677,6.83716608 50.6826626,6.57392212 C50.5902987,6.32890502 50.4522032,6.10367771 50.2757286,5.91023212 C49.9145885,5.5104478 49.3973363,5.28763147 48.8587262,5.29983109 C48.3325436,5.28470512 47.8252384,5.4964499 47.4659461,5.8811654 C47.0844151,6.29992727 46.8489854,6.83113144 46.7949894,7.39505682 L50.878863,7.39505682 Z" id="Shape"></path>
                <polygon id="Path" points="54.3305354 0.93013489 56.1690051 0.93013489 56.1690051 11.9318866 54.3305354 11.9318866"></polygon>
                <path d="M62.2124597,12.0820647 C61.4221098,12.0917582 60.6371146,11.9511988 59.8992336,11.667864 C59.1624682,11.3671416 58.4862523,10.9354796 57.9033192,10.393773 L58.629987,9.51934927 C59.1260621,9.98332007 59.694727,10.3629755 60.3134343,10.6432623 C60.9272778,10.8975777 61.5868744,11.0229011 62.2512153,11.0114407 C62.8619326,11.0426755 63.4650769,10.8649786 63.9613071,10.5076176 C64.369709,10.2062577 64.6077854,9.72649768 64.6007748,9.21899321 L64.6007748,9.18750427 C64.6045617,8.96359701 64.5633782,8.74120644 64.4796635,8.53350317 C64.3906032,8.32067776 64.2478951,8.13457296 64.0654628,7.99334671 C63.8081006,7.80547669 63.522843,7.6591698 63.2201058,7.55976821 C62.7729393,7.40380171 62.3157026,7.2783651 61.851548,7.18432314 C61.3151786,7.0736262 60.7880283,6.92220205 60.2746787,6.73136682 C59.8725926,6.58810795 59.4969345,6.37940904 59.1628768,6.11369912 C58.8822543,5.88763432 58.6596926,5.59780591 58.5137202,5.26834215 C58.3649488,4.91107504 58.2931438,4.52646433 58.3029865,4.13958471 L58.3029865,4.11778467 C58.299416,3.72227348 58.3864151,3.33119164 58.5573202,2.97449387 C58.7298305,2.62061166 58.9778852,2.30888963 59.2839881,2.06131456 C59.6125693,1.79382218 59.9867505,1.58785838 60.3885233,1.45333577 C60.8357998,1.30388248 61.3049017,1.23020155 61.776459,1.2353354 C62.4661869,1.22207184 63.1527479,1.33198723 63.8038624,1.55991372 C64.4107922,1.79275027 64.977266,2.11971931 65.4824652,2.52880423 L64.7897085,3.44925022 C64.3480982,3.07545303 63.845953,2.77973621 63.3048838,2.57482653 C62.8049908,2.39307119 62.2768747,2.30122491 61.74497,2.30353719 C61.1578691,2.26914015 60.5771372,2.4404475 60.1027006,2.78798244 C59.7214999,3.07363882 59.4978454,3.52274428 59.4995663,3.99909558 L59.4995663,4.0281623 C59.4946893,4.25766103 59.5358712,4.48580858 59.6206776,4.69911898 C59.7158574,4.91511909 59.8662316,5.10225132 60.0566783,5.24169766 C60.3231154,5.43676788 60.6180612,5.58955143 60.931102,5.69465398 C61.398763,5.85610298 61.8770984,5.9847922 62.3626377,6.07978796 C63.5398397,6.34138839 64.4045745,6.70230011 64.9641088,7.16494533 C65.5243463,7.63241266 65.8335653,8.33510165 65.7997768,9.06397073 L65.7997768,9.09303744 C65.8151059,9.9355971 65.4438458,10.7388041 64.7921307,11.2730411 C64.4569166,11.5439613 64.0717616,11.7464145 63.6585288,11.8689088 C63.1904253,12.0142975 62.7026042,12.0862041 62.2124597,12.0820647 L62.2124597,12.0820647 Z" id="Path"></path>
                <path d="M70.0338283,12.0675313 C69.738047,12.0694099 69.4435408,12.0286196 69.1594047,11.94642 C68.6220233,11.7986298 68.1895799,11.3995901 67.9991583,10.875796 C67.8813512,10.5524271 67.8254743,10.2097704 67.8344469,9.86572763 L67.8344469,5.16418642 L66.7492895,5.16418642 L66.7492895,4.13958471 L67.8344469,4.13958471 L67.8344469,1.78760299 L68.9946933,1.78760299 L68.9946933,4.13958471 L71.4556752,4.13958471 L71.4556752,5.16418642 L68.9850044,5.16418642 L68.9850044,9.70343847 C68.9850044,10.1878837 69.1061157,10.5197287 69.3459161,10.7110846 C69.6202267,10.9125296 69.9554985,11.0134532 70.2954288,10.9969073 C70.4851109,10.998144 70.6743603,10.9786505 70.8598075,10.9387739 C71.0558608,10.8949678 71.2460956,10.8283043 71.4266085,10.7401513 L71.4266085,11.7356863 C71.2244202,11.8447255 71.0085373,11.9261907 70.7847185,11.9779089 C70.5388851,12.0375855 70.2868014,12.0676729 70.0338283,12.0675313 Z" id="Path"></path>
                <path d="M75.7769269,12.096598 C75.3464164,12.104179 74.9185651,12.0276594 74.5173692,11.871331 C74.1625961,11.7281721 73.8434655,11.5090799 73.5823898,11.229441 C73.3222847,10.9438879 73.1228637,10.6084981 72.9962111,10.2435949 C72.8564357,9.83606459 72.7876151,9.40757428 72.7927441,8.97677058 L72.7927441,4.13231803 L73.9529905,4.13231803 L73.9529905,8.68125898 C73.9195751,9.30221521 74.1181332,9.91342887 74.5101025,10.3961952 C74.9230974,10.8330073 75.5088195,11.0637463 76.1087719,11.025974 C76.4254471,11.0293202 76.7397381,10.9709049 77.0340623,10.8539959 C77.3129395,10.7431021 77.5648441,10.5737892 77.7728413,10.3574396 C77.9821218,10.1331273 78.1465589,9.87085022 78.2572866,9.58474938 C78.3810431,9.26844605 78.442722,8.93126768 78.4389535,8.5916366 L78.4389535,4.13958471 L79.5846666,4.13958471 L79.5846666,11.9318866 L78.4389535,11.9318866 L78.4389535,10.5754399 C78.1743581,11.000069 77.8256726,11.3660651 77.4143518,11.6509084 C76.9281162,11.96601 76.3557873,12.1217919 75.7769269,12.096598 Z" id="Path"></path>
                <path d="M84.8651198,12.096598 C84.3939453,12.0972403 83.9272596,12.0050555 83.4917175,11.8253087 C83.0474398,11.6424308 82.6433675,11.3741465 82.3024044,11.0356629 C81.9405901,10.6726484 81.6533962,10.242269 81.4570475,9.76883858 C81.2383273,9.22573296 81.1312348,8.64413806 81.1421581,8.05874682 L81.1421581,8.02725788 C81.1335079,7.44677093 81.2405531,6.87037387 81.4570475,6.33169949 C81.6514277,5.85507831 81.9388053,5.42195322 82.3024044,5.05760847 C82.6437103,4.71772228 83.0475748,4.44710837 83.4917175,4.26069602 C83.9261189,4.07640165 84.393242,3.98165888 84.8651198,3.98214 C85.2008606,3.97824674 85.5353878,4.02312235 85.8582326,4.11536244 C86.1443946,4.19995267 86.418071,4.32212962 86.6721006,4.47869639 C86.9115641,4.62736762 87.1319996,4.80469211 87.328524,5.00674171 C87.5195494,5.20248859 87.6937573,5.41396897 87.8493026,5.63894277 L87.8493026,0.93013489 L89.009549,0.93013489 L89.009549,11.9318866 L87.8493026,11.9318866 L87.8493026,10.3647062 C87.6860522,10.5970016 87.5072027,10.8179333 87.3139906,11.025974 C87.118176,11.2378879 86.8978159,11.4257226 86.6575673,11.5855083 C86.408551,11.7495068 86.1367785,11.8760075 85.8509659,11.9609534 C85.5310601,12.0555726 85.1986921,12.1013039 84.8651198,12.096598 L84.8651198,12.096598 Z M85.0758535,11.057463 C85.4359475,11.0576576 85.7921969,10.983439 86.1222553,10.8394626 C86.4598131,10.6926406 86.7664104,10.4830365 87.0257457,10.2217949 C87.2965599,9.94826713 87.5120411,9.62504532 87.660369,9.26985996 C87.8233089,8.88109054 87.9057106,8.4633139 87.9025916,8.04179124 L87.9025916,8.01272452 C87.9057106,7.59120187 87.8233089,7.17342522 87.660369,6.7846558 C87.3691672,6.08672307 86.8174186,5.52976112 86.1222553,5.23200876 C85.7921969,5.08803234 85.4359475,5.01381371 85.0758535,5.01400839 C84.7090975,5.0110588 84.3453346,5.08019021 84.0052295,5.2174754 C83.6776317,5.35316742 83.382198,5.55617495 83.1380725,5.81334307 C82.8831491,6.08622891 82.6840229,6.40631192 82.5518937,6.75558909 C82.3988731,7.16009894 82.3240735,7.5899914 82.3314712,8.02241343 L82.3314712,8.05148015 C82.3248579,8.47911223 82.399662,8.90409823 82.5518937,9.30377113 C82.6858546,9.65596753 82.8874601,9.97853635 83.1453392,10.2532838 C83.3925882,10.5119089 83.6901742,10.7171691 84.0197629,10.8564182 C84.3545924,10.9941039 84.7138551,11.0624956 85.0758535,11.057463 L85.0758535,11.057463 Z" id="Shape"></path>
                <path d="M91.0272635,1.15540193 L92.3546435,1.15540193 L92.3546435,2.43675963 L91.0272635,2.43675963 L91.0272635,1.15540193 Z M91.1047747,4.13958471 L92.2650211,4.13958471 L92.2650211,11.9318866 L91.1047747,11.9318866 L91.1047747,4.13958471 Z" id="Shape"></path>
                <path d="M97.916075,12.1111314 C97.3617528,12.1174842 96.8122375,12.0077462 96.3028723,11.7889753 C95.824382,11.5810042 95.3896031,11.2843026 95.0215146,10.9145516 C94.659381,10.5467181 94.3729866,10.1113657 94.1785799,9.6331939 C93.9756363,9.13831792 93.8727298,8.60814363 93.8758016,8.07328018 L93.8758016,8.04179124 C93.8735459,7.50464984 93.976404,6.9722562 94.1785799,6.47461084 C94.3727631,5.99201939 94.6590704,5.55186295 95.0215146,5.17871978 C96.2204829,3.99661611 98.0115605,3.64909359 99.5656111,4.29702942 C100.04686,4.5038878 100.484222,4.80066872 100.854235,5.1714531 C101.215591,5.53991507 101.501878,5.97510495 101.69717,6.4528108 C101.900114,6.94768679 102.00302,7.47786108 101.999949,8.01272452 L101.999949,8.04179124 C102.002725,8.57968908 101.897286,9.112651 101.689904,9.60897164 C101.490237,10.0889694 101.20179,10.5269808 100.839702,10.9000182 C100.070378,11.6844616 99.0147553,12.1217534 97.916075,12.1111314 L97.916075,12.1111314 Z M97.9451417,11.0719963 C98.3449476,11.0770458 98.7409975,10.9943631 99.1053881,10.8297737 C99.4483066,10.6739016 99.756383,10.4506698 100.011301,10.1733504 C100.264472,9.89637818 100.463318,9.57428027 100.59748,9.22383766 C100.739602,8.85365332 100.811081,8.46010999 100.808213,8.06359128 L100.808213,8.04179124 C100.811459,7.63749056 100.737467,7.23628941 100.590213,6.85974482 C100.450928,6.50054222 100.243676,6.17157183 99.9798118,5.89085431 C99.7183014,5.61461834 99.4057197,5.39169828 99.0593658,5.23443098 C98.7002709,5.07195837 98.3102047,4.98931723 97.916075,4.99220836 C97.1343748,4.98118224 96.3852025,5.3046484 95.8571827,5.8811654 C95.6050028,6.1648522 95.4085984,6.49356246 95.2782706,6.85005591 C95.1365721,7.22288566 95.0651235,7.61872734 95.0675369,8.01756898 L95.0675369,8.04663569 C95.0640419,8.4517447 95.1380372,8.85378586 95.2855373,9.23110434 C95.4251754,9.58050741 95.6298395,9.90024368 95.8886716,10.1733504 C96.1472235,10.4462053 96.4566077,10.665901 96.7994287,10.8200848 C97.158264,10.9869826 97.5493934,11.0729815 97.9451417,11.0719963 L97.9451417,11.0719963 Z" id="Shape"></path>
                <path d="M6.9784339,3.96276219 C8.51016754,3.96276219 9.75188299,5.20447764 9.75188299,6.73621128 C9.75188299,8.26794491 8.51016754,9.50966036 6.9784339,9.50966036 C5.44670027,9.50966036 4.20498482,8.26794491 4.20498482,6.73621128 C4.20632034,5.20503118 5.4472538,3.96409772 6.9784339,3.96276219 L6.9784339,3.96276219 Z M6.9784339,4.76456033e-22 C4.25269068,1.76092439e-07 1.79538728,1.64207773 0.752516933,4.16042988 C-0.290353413,6.67878203 0.28661956,9.57737839 2.21435751,11.5044234 C4.14209546,13.4314684 7.04089907,14.0073993 9.55887613,12.9636236 C12.0768532,11.9198479 13.7180472,9.46195432 13.7170674,6.73621128 C13.7170675,4.94923721 13.0070291,3.23548833 11.7432205,1.97213401 C10.4794119,0.708779693 8.76540785,-0.000642565288 6.9784339,4.76456033e-22 Z" id="Shape"></path>
            </g>
        </g>
    </g>
</svg>