<?xml version="1.0" encoding="UTF-8"?>
<svg width="43px" height="14px" viewBox="0 0 43 14" version="1.1" xmlns="http://www.w3.org/2000/svg" xmlns:xlink="http://www.w3.org/1999/xlink">
    <!-- Generator: Sketch 53.2 (72643) - https://sketchapp.com -->
    <title>Group 8</title>
    <desc>Created with Sketch.</desc>
    <g id="desktop" stroke="none" stroke-width="1" fill="none" fill-rule="evenodd">
        <g id="Group-8" transform="translate(0.000000, 0.507369)" fill="#000000">
            <polygon id="Fill-1" points="0.381858549 5.98719858 0.381858549 0.347040054 -3.17967874e-13 0.347040054 -3.17967874e-13 12.6338608 0.381858549 12.6338608 0.381858549 6.02188239 0.39920045 6.02188239 6.90695912 12.6338608 7.44506314 12.6338608 0.885110403 5.98719858 7.13257219 0.347040054 6.57729464 0.347040054 0.39920045 5.98719858"></polygon>
            <path d="M15.3600244,10.1349098 L17.5119354,6.23028826 L17.0780512,6.23028826 L15.082554,9.90912834 L11.3511831,5.90045541 C11.7907919,5.65750043 12.1985791,5.4206067 12.5747132,5.18893238 C12.9505105,4.95759479 13.2744504,4.7089153 13.5465331,4.44255718 C13.818279,4.17653579 14.0295808,3.88458574 14.1799334,3.56620191 C14.3301176,3.24832319 14.4055464,2.88077592 14.4055464,2.46423357 C14.4055464,2.12901294 14.3390411,1.81349137 14.2060304,1.5185107 C14.0728513,1.22336165 13.8935394,0.966095395 13.6679264,0.746038462 C13.4423133,0.526655001 13.170399,0.352899259 12.8523519,0.225613076 C12.5339681,0.0984952608 12.1955485,0.0346838012 11.8370931,0.0346838012 C11.4554029,0.0346838012 11.099473,0.0984952608 10.7698085,0.225613076 C10.4401441,0.352899259 10.156444,0.532379512 9.91955031,0.763380363 C9.68215148,0.995054686 9.49425283,1.27286183 9.35534926,1.59663343 C9.21661405,1.9205734 9.14741482,2.27936554 9.14741482,2.67267311 C9.14741482,2.91562809 9.17317512,3.15269018 9.22520082,3.38402777 C9.27739489,3.61553373 9.36679828,3.85259582 9.49425283,4.0955508 C9.62153901,4.33867414 9.78923351,4.59897102 9.99750468,4.8766098 C10.2057759,5.15408021 10.4662411,5.46640279 10.7785637,5.81357754 C10.3386182,6.05653251 9.93386159,6.29965586 9.56362043,6.54244247 C9.19337927,6.78539744 8.87516381,7.05444945 8.60914243,7.3495985 C8.34295267,7.64457918 8.13771212,7.96868752 7.99308403,8.32141841 C7.84828758,8.67431767 7.77622609,9.07638037 7.77622609,9.52743816 C7.77622609,10.0598177 7.86579785,10.5369725 8.0452781,10.9592393 C8.22442162,11.3815062 8.47040722,11.7399616 8.78289817,12.0349423 C9.09505238,12.3300913 9.46226292,12.5558728 9.88469815,12.7119499 C10.306965,12.868027 10.7613902,12.9461497 11.2471317,12.9461497 C12.0453643,12.9461497 12.7683363,12.7380469 13.4163846,12.3213362 C14.0640962,11.9051306 14.6485014,11.2917661 15.1690952,10.4820845 L17.1822709,12.6339955 L17.6856912,12.6339955 L15.3600244,10.1349098 Z M11.1257384,5.67484233 C10.6282111,5.11939641 10.237429,4.61631292 9.95440248,4.1649184 C9.67053409,3.71369225 9.52893663,3.21060877 9.52893663,2.65533121 C9.52893663,2.31977385 9.58988584,2.0104819 9.71111077,1.72678187 C9.83267244,1.44325021 9.99447406,1.20046361 10.1970207,0.997748573 C10.399399,0.795538645 10.6396601,0.636262548 10.9172989,0.520593754 C11.1949377,0.404924961 11.4899183,0.347174748 11.8024093,0.347174748 C12.1031145,0.347174748 12.3895084,0.39920045 12.661591,0.503251854 C12.9331686,0.607471625 13.170399,0.754961965 13.3729457,0.945722871 C13.5751556,1.13682051 13.7346001,1.36832647 13.8501005,1.639904 C13.9657693,1.91198663 14.0236879,2.20999794 14.0236879,2.53376954 C14.0236879,2.90417907 13.9512897,3.23384354 13.8068299,3.52293134 C13.6620335,3.81235588 13.4596552,4.0782089 13.1993583,4.32133224 C12.9390614,4.56428722 12.6324634,4.79579318 12.2795641,5.015345 C11.9264965,5.23523357 11.5421124,5.4552905 11.1257384,5.67484233 L11.1257384,5.67484233 Z M14.9087983,10.2042774 C14.503705,10.9329739 13.991698,11.5175475 13.3729457,11.9569879 C12.7538567,12.3969334 12.0741552,12.6163169 11.3338412,12.6163169 C10.8942325,12.6163169 10.4834146,12.5444238 10.1018928,12.3994589 C9.71986591,12.2551676 9.38414018,12.0497587 9.09505238,11.7835689 C8.80579621,11.5175475 8.57715251,11.1932708 8.40962639,10.811749 C8.24193189,10.4298905 8.15808464,10.0020675 8.15808464,9.52743816 C8.15808464,9.11106417 8.23603901,8.72903726 8.39228448,8.38219924 C8.54836159,8.03485613 8.75949502,7.72270192 9.02568478,7.44489477 C9.29170617,7.16742436 9.59544198,6.91571425 9.93672385,6.68993281 C10.2778373,6.46431973 10.6396601,6.25907918 11.0215187,6.07387441 L14.9087983,10.2042774 Z" id="Fill-2"></path>
            <path d="M29.2346056,11.1240716 L28.9569669,10.8636063 C28.4710569,11.4537361 27.8549985,11.8963755 27.1087917,12.1913561 C26.3622481,12.4863368 25.6076229,12.6338271 24.8440742,12.6338271 C23.9529025,12.6338271 23.1460832,12.4748878 22.4231112,12.1566723 C21.6999707,11.8384569 21.0807134,11.401542 20.5661809,10.8464328 C20.0513116,10.2909869 19.6551418,9.64024469 19.377503,8.89403786 C19.0996959,8.14766267 18.9607923,7.34656788 18.9607923,6.49041676 C18.9607923,5.63443402 19.1023898,4.83317086 19.3860898,4.08696403 C19.6692847,3.34058884 20.0686535,2.68984664 20.5833544,2.13440072 C21.0982236,1.57929153 21.7173126,1.14271339 22.4402847,0.824329567 C23.1632568,0.506282477 23.9645199,0.347174748 24.8440742,0.347174748 C25.1676774,0.347174748 25.5034031,0.376134039 25.8504095,0.433884251 C26.1975843,0.4919712 26.5417284,0.584236846 26.8830102,0.711523029 C27.2242921,0.83897758 27.5480637,0.997748573 27.8549985,1.18884622 C28.1614282,1.37960712 28.4363731,1.60252631 28.6791597,1.85676194 L28.9222831,1.57929153 C28.41297,1.04708039 27.7969116,0.650573825 27.0739395,0.390445316 C26.3507991,0.130148439 25.6076229,-3.0375702e-13 24.8440742,-3.0375702e-13 C23.9300045,-3.0375702e-13 23.0881646,0.162138352 22.3188914,0.485741585 C21.5492814,0.81001829 20.8872586,1.25804545 20.331981,1.83083327 C19.7763667,2.4036211 19.3453447,3.08887872 19.038915,3.88727963 C18.732317,4.68568053 18.5791021,5.55344903 18.5791021,6.49041676 C18.5791021,7.42755287 18.732317,8.295153 19.038915,9.09338554 C19.3453447,9.8919548 19.7763667,10.5773808 20.331981,11.1500003 C20.8872586,11.7227881 21.5467559,12.1713203 22.3103046,12.4950919 C23.073685,12.8186952 23.9182187,12.9808335 24.8440742,12.9808335 C25.6653731,12.9808335 26.4723608,12.8272819 27.2648688,12.5210206 C28.0572085,12.2147593 28.7140119,11.7488851 29.2346056,11.1240716" id="Fill-4"></path>
            <path d="M42.1096536,6.49050095 C42.1096536,5.54191582 41.9505459,4.67128506 41.6324988,3.87860867 C41.3139466,3.08626902 40.8745062,2.40353691 40.3135041,1.83091746 C39.7521653,1.25812963 39.0869435,0.809934106 38.3176702,0.485994137 C37.5482286,0.162222536 36.7065571,8.41839833e-05 35.7924875,8.41839833e-05 C34.8785861,8.41839833e-05 34.0369147,0.162222536 33.2674731,0.485994137 C32.4981998,0.809934106 31.832978,1.25812963 31.2719759,1.83091746 C30.7106371,2.40353691 30.2710283,3.08626902 29.9529813,3.87860867 C29.6344291,4.67128506 29.4758264,5.54191582 29.4758264,6.49050095 C29.4758264,7.43925444 29.6344291,8.31005357 29.9529813,9.10239322 C30.2710283,9.89490124 30.7106371,10.5772966 31.2719759,11.1500844 C31.832978,11.7228723 32.5010621,12.1710678 33.2763966,12.4950078 C34.0513943,12.8187794 34.8903719,12.9809177 35.7924875,12.9809177 C36.6951081,12.9809177 37.5339173,12.8187794 38.3090835,12.4950078 C39.0840812,12.1710678 39.7521653,11.7228723 40.3135041,11.1500844 C40.8745062,10.5772966 41.3139466,9.89490124 41.6324988,9.10239322 C41.9505459,8.31005357 42.1096536,7.43925444 42.1096536,6.49050095 M41.7276267,6.49050095 C41.7276267,7.34682043 41.5860292,8.14791522 41.3026659,8.89395368 C41.0187975,9.64032888 40.6172399,10.2910711 40.0966462,10.8463486 C39.575884,11.4017946 38.9512389,11.8385411 38.222374,12.1564198 C37.493509,12.474972 36.6833224,12.633743 35.7924875,12.633743 C34.9014842,12.633743 34.091971,12.474972 33.3631061,12.1564198 C32.6342411,11.8385411 32.009596,11.4017946 31.4888338,10.8463486 C30.9682401,10.2910711 30.566009,9.64032888 30.2828141,8.89395368 C29.9991141,8.14791522 29.8573482,7.34682043 29.8573482,6.49050095 C29.8573482,5.6345182 30.0021447,4.83308668 30.2914009,4.08687985 C30.5803203,3.34067302 30.9882759,2.68993083 31.5149309,2.13465327 C32.0412491,1.57920735 32.6689249,1.14262921 33.3977899,0.824413751 C34.1266548,0.506198293 34.9250557,0.347090564 35.7924875,0.347090564 C36.6604243,0.347090564 37.4586569,0.506198293 38.1875218,0.824413751 C38.9165551,1.14262921 39.5438941,1.57920735 40.0705491,2.13465327 C40.5968674,2.68993083 41.0046546,3.34067302 41.2939108,4.08687985 C41.5829986,4.83308668 41.7276267,5.6345182 41.7276267,6.49050095" id="Fill-6"></path>
        </g>
    </g>
</svg>