<?xml version="1.0" encoding="utf-8"?>
<!-- Generator: Adobe Illustrator 26.1.0, SVG Export Plug-In . SVG Version: 6.00 Build 0)  -->
<svg version="1.1" id="Layer_1" xmlns="http://www.w3.org/2000/svg" xmlns:xlink="http://www.w3.org/1999/xlink" x="0px" y="0px"
	 viewBox="0 0 1000 167.9" style="enable-background:new 0 0 1000 167.9;" xml:space="preserve">
<style type="text/css">
	.st0{opacity:0;fill-rule:evenodd;clip-rule:evenodd;fill:#FF0000;}
	.st1{fill-rule:evenodd;clip-rule:evenodd;}
</style>
<desc>Created with Sketch.</desc>
<g id="desktop">
	<g id="Homepage-Copy" transform="translate(-200.000000, -39.000000)">
		<g id="Group-4">
			<g id="Group-18" transform="translate(200.000000, 39.418457)">
				<path id="Fill-1" class="st0" d="M285.5,116l-32.7-32.7l32.7-32.7c6.9-6.9,6.9-18,0-24.9s-18-6.9-24.9,0l-32.7,32.7l-32.7-32.7
					c-6.9-6.9-18-6.9-24.9,0s-6.9,18,0,24.9L203,83.3L170.3,116c-6.9,6.9-6.9,18,0,24.9c3.4,3.4,7.9,5.1,12.4,5.1s9-1.7,12.4-5.1
					l32.7-32.7l32.7,32.7c3.4,3.4,7.9,5.1,12.4,5.1s9-1.7,12.4-5.1C292.4,133.9,292.4,122.8,285.5,116"/>
				<g id="Group-5" transform="translate(0.000000, 0.542605)">
					<g id="Clip-4">
					</g>
					<path id="Fill-3" class="st1" d="M4,158.5h129v-46.3h-2.3c-0.4,3.2-1.4,7.3-3,12.3c-1.6,4.9-3.9,9.7-7.2,14.3
						c-3.2,4.6-7.4,8.5-12.6,11.8c-5.1,3.3-11.6,5-19.3,5h-40V79.2h17.1c5.1,0,9.2,0.9,12.4,2.6c3.2,1.8,5.7,4.1,7.6,7.1
						s3.4,6.3,4.4,10.2c1.1,3.8,2.1,7.8,3.1,11.8h2.3V45.2h-2.3c-1.6,6.3-3.1,11.5-4.8,15.5c-1.6,4-3.6,7.2-5.9,9.5
						c-2.3,2.3-5.1,3.9-8.4,4.8c-3.2,0.8-7.2,1.3-11.8,1.3H48.6V10.9h35.1c5.8,0,10.7,0.7,14.8,2.1c4.1,1.4,7.6,3.6,10.6,6.5
						s5.5,6.4,7.6,10.6s4.1,9,5.9,14.5h2.3V8H4v3h23.5v144.6H4V158.5z"/>
				</g>
				<polygon id="Fill-6" class="st1" points="314,159.1 382.1,159.1 382.1,156.1 358.6,156.1 358.6,11.5 382.1,11.5 382.1,8.5 
					314,8.5 314,11.5 337.4,11.5 337.4,156.1 314,156.1 				"/>
				<g id="Group-10" transform="translate(55.174117, 0.005195)">
					<g id="Clip-9">
					</g>
					<path id="Fill-8" class="st1" d="M497.5,102.2H433v3h27.3V123c0,6.2-1.1,11.6-3.3,16.2c-2.2,4.6-5,8.4-8.5,11.3
						c-3.5,3-7.4,5.2-11.7,6.7c-4.4,1.5-8.7,2.2-13.1,2.2c-7.2,0-13-0.7-17.6-2.2c-4.5-1.5-8.9-4.1-13.1-7.9
						c-3.8-3.4-6.9-7.5-9.3-12.3s-4.3-10-5.6-15.7c-1.3-5.6-2.3-11.6-2.9-18c-0.6-6.3-0.8-12.7-0.8-19c0-9.3,0.6-18.5,1.8-27.7
						c1.2-9.2,3.6-17.4,7.2-24.6c3.6-7.3,8.6-13.1,15-17.6c6.4-4.4,14.9-6.7,25.5-6.7c8.9,0,16.2,1.6,21.9,4.7
						c5.7,3.1,10.3,6.9,13.7,11.4c3.5,4.5,6,9.2,7.6,14.2c1.6,4.9,2.7,9.2,3.3,12.9h2.3V8.5h-3.2c-1.1,1.4-2.3,2.5-3.5,3.3
						s-3.2,1.2-6,1.2c-2.5,0-4.8-0.4-6.9-1.3c-2-0.8-4.3-1.8-6.9-2.9c-2.5-1.1-5.5-2-9-2.9c-3.5-0.8-7.9-1.3-13.2-1.3
						c-10.4,0-19.7,2-27.9,5.9c-8.2,3.9-15.4,9.1-21.8,15.4c-1.8,1.8-4.1,4.4-6.9,7.6c-2.7,3.2-5.4,7.3-8,12.1s-4.8,10.4-6.7,16.8
						c-1.8,6.4-2.7,13.6-2.7,21.7c0,12,2.3,22.8,7,32.4s10.5,17.9,17.6,25c7.2,7.2,14.7,12.4,22.4,15.8c7.8,3.3,16.6,5,26.6,5
						c6.6,0,12.3-0.7,16.9-2c4.7-1.3,8.7-2.9,12.2-4.5c3.5-1.7,6.5-3.2,9.1-4.5s5.2-2,7.7-2c2.1,0,3.7,0.3,4.7,0.8
						c1,0.6,2.3,1.6,3.8,3.2h2.5v-48h16.9v-3.1H497.5z"/>
				</g>
				<path id="Fill-11" class="st1" d="M563.7,159.1h129v-46.3h-2.3c-0.4,3.2-1.4,7.3-3,12.3c-1.6,4.9-3.9,9.7-7.2,14.3
					c-3.2,4.6-7.4,8.5-12.6,11.8c-5.1,3.3-11.6,5-19.4,5h-40V79.8h17.1c5.1,0,9.2,0.9,12.4,2.6c3.2,1.8,5.7,4.1,7.6,7.1
					c1.9,3,3.4,6.3,4.4,10.2c1.1,3.8,2.1,7.8,3.1,11.8h2.3V45.7h-2.3c-1.6,6.3-3.1,11.5-4.8,15.5c-1.6,4-3.6,7.2-5.9,9.5
					c-2.3,2.3-5.1,3.9-8.4,4.8c-3.2,0.8-7.2,1.3-11.8,1.3h-13.7V11.5h35.1c5.8,0,10.7,0.7,14.8,2.1s7.6,3.6,10.6,6.5
					s5.5,6.4,7.6,10.6s4.1,9,5.9,14.5h2.3V8.5h-121v3H587v144.6h-23.5v3H563.7z"/>
				<polygon id="Fill-13" class="st1" points="710.7,159.1 760.8,159.1 760.8,156.1 737.3,156.1 737.3,20.1 737.7,20.1 826.8,162 
					831,162 831,11.5 854.5,11.5 854.5,8.5 804.3,8.5 804.3,11.5 827.8,11.5 827.8,123.7 827.4,123.7 755.9,8.5 710.7,8.5 
					710.7,11.5 734.1,11.5 734.1,156.1 710.7,156.1 				"/>
				<g id="Group-17" transform="translate(118.588524, 0.542605)">
					<g id="Clip-16">
					</g>
					<path id="Fill-15" class="st1" d="M778.6,158.5h68.1v-3h-23.5V10.9h12.3c2.8,0,6,0.2,9.5,0.7s7.1,1.9,10.7,4.1
						c3.6,2.3,7,5.8,10.4,10.7c3.3,4.9,6.2,11.6,8.6,20.2h2.3V8H748.3v38.7h2.3c2.4-8.6,5.2-15.3,8.6-20.2
						c3.3-4.9,6.8-8.4,10.4-10.7c3.6-2.3,7.2-3.6,10.7-4.1s6.7-0.7,9.5-0.7h12.3v144.6h-23.5V158.5z"/>
				</g>
			</g>
		</g>
	</g>
</g>
</svg>
