<?xml version="1.0" encoding="utf-8"?>
<!-- Generator: Adobe Illustrator 26.1.0, SVG Export Plug-In . SVG Version: 6.00 Build 0)  -->
<svg version="1.1" id="Layer_1" xmlns="http://www.w3.org/2000/svg" xmlns:xlink="http://www.w3.org/1999/xlink" x="0px" y="0px"
	 viewBox="0 0 125.6 125.5" style="enable-background:new 0 0 125.6 125.5;" xml:space="preserve">
<style type="text/css">
	.st0{fill-rule:evenodd;clip-rule:evenodd;fill:#FF0000;}
</style>
<g id="Group-18" transform="translate(200.000000, 39.418457)">
	<path id="Fill-1" class="st0" d="M-79.6,56.1l-32.7-32.7l32.7-32.7c6.9-6.9,6.9-18,0-24.9s-18-6.9-24.9,0l-32.7,32.7l-32.7-32.7
		c-6.9-6.9-18-6.9-24.9,0c-6.9,6.9-6.9,18,0,24.9l32.7,32.7l-32.7,32.7c-6.9,6.9-6.9,18,0,24.9c3.4,3.4,7.9,5.1,12.4,5.1
		s9-1.7,12.4-5.1l32.7-32.7l32.7,32.7c3.4,3.4,7.9,5.1,12.4,5.1s9-1.7,12.4-5.1C-72.7,74-72.7,62.9-79.6,56.1"/>
</g>
</svg>
